<?xml version="1.0" encoding="utf-8"?>
<!-- Generator: Adobe Illustrator 26.0.2, SVG Export Plug-In . SVG Version: 6.00 Build 0)  -->
<svg version="1.1" id="Layer_1" xmlns="http://www.w3.org/2000/svg" xmlns:xlink="http://www.w3.org/1999/xlink" x="0px" y="0px"
	 viewBox="0 0 414.1 185.7" style="enable-background:new 0 0 414.1 185.7;" xml:space="preserve">
<style type="text/css">
	.st0{display:none;}
	.st1{fill:#EDE5D0;}
	.st2{fill:#FFFFFF;}
	.st3{fill:#D6C4A8;}
	.st4{fill:#EE4623;}
	.st5{fill:#489094;}
</style>
<g id="Layer_2_00000152955248338110715740000002258627737009947808_" class="st0">
</g>
<g id="Layer_1_00000023261051742503110230000008989395375908447934_">
	<rect x="-3" y="-5.4" class="st1" width="419.6" height="195.5"/>
	<circle class="st2" cx="208.4" cy="87.5" r="60.6"/>
	<path class="st3" d="M369.7,190.2h-69.3C208.3,161.2,60.8,106.3-3,81.4v-77c22.6,17,37,38.7,69.5,37.8c43.1-1.1,30,39.7,68.8,51.5
		s89.6-13.5,110.8,1s37.7,18.9,83.3,16.7c2.7-0.1,5,0.3,7.1,1.2c2.2,1,4.1,2.5,5.8,4.5l0,0c6.7,8,10.2,23.3,15.2,40.5
		C360.5,168.2,364.3,179.5,369.7,190.2z"/>
	<polygon class="st4" points="238.4,127.9 246,121.8 236.1,125.5 236.1,117.6 233.3,125.3 227.2,120.7 231.4,127.9 224.8,130.5 
		233,131 235.4,138 235.4,131.7 242.4,134.5 	"/>
	<path class="st5" d="M375.9,190.2H-3V37.9c4.4,3.6,9.5,6.9,15.1,9.4C46.6,63,74.7,60.7,102.9,82c35.8,27,61.6,50.3,125.8,47.7
		c20.1-0.8,34.5-3.3,49.9-4.8c15-1.5,27.5-3.7,49.8,3.1c13.4,4.1,21.8,17.1,29,29.6c2.7,4.6,5.2,9.2,7.7,13.1
		C369.2,177.4,372.5,184,375.9,190.2z"/>
	<polygon class="st4" points="343.5,112.7 351,106.5 341.2,110.3 341.2,102.3 338.3,110.1 332.2,105.5 336.5,112.7 329.9,115.3 
		338,115.8 340.5,122.8 340.5,116.4 347.4,119.3 	"/>
	<polygon class="st4" points="63.5,20.6 60,16.3 62.1,21.9 57.6,21.9 62,23.5 59.4,27 63.5,24.6 64.9,28.3 65.2,23.7 69.2,22.3 
		65.6,22.3 67.2,18.3 	"/>
</g>
<g id="Layer_3">
</g>
</svg>
